<svg width="102" height="89" viewBox="0 0 102 89" fill="none" xmlns="http://www.w3.org/2000/svg">
<path d="M74.4381 3.03793e-05C62.5576 -0.0175584 52.0116 7.60397 48.3004 18.8912H9.57071C7.02914 18.8864 4.5915 19.8945 2.79504 21.6926C0.999391 23.4898 -0.00636559 25.9291 3.03194e-05 28.4706V78.9408C-0.00476661 81.4776 1.00259 83.9112 2.79984 85.7021C4.59629 87.4929 7.03394 88.4923 9.57071 88.4787H86.9333C92.2371 88.4787 96.6039 84.2446 96.6039 78.9408V43.904C99.8786 39.3213 102 33.6601 102 27.5256C102 12.3417 89.622 3.03793e-05 74.4381 3.03793e-05ZM9.57071 21.7565H47.5193C47.1075 23.6553 46.9005 25.5925 46.9029 27.5352C46.9148 38.7033 53.6649 48.7601 63.9951 53.0022L54.0687 60.7876C50.8947 63.2732 46.4336 63.27 43.2628 60.7796L2.8654 29.6835V28.4706C2.8582 26.6886 3.56175 24.9785 4.82015 23.7177C6.07935 22.4569 7.78945 21.7509 9.57071 21.7565ZM68.6394 54.4292C70.5573 54.8434 72.5145 55.0521 74.4772 55.0513C81.9621 55.0513 88.6218 52.0476 93.7385 47.1851V78.7657L68.6394 54.4292ZM29.4844 53.7745L2.8654 78.8177V33.2996L29.4844 53.7745ZM86.9333 85.6133H9.57071C7.05232 85.6261 4.7386 84.2318 3.57375 81.9996L31.7365 55.5238L41.4839 63.0317C45.6988 66.3304 51.619 66.332 55.8355 63.0373L65.531 55.4286L92.9358 81.9884C91.7734 84.227 89.4557 85.6261 86.9333 85.6133ZM74.4381 52.1859C60.8132 52.1859 49.7682 41.1401 49.7682 27.5152C49.7682 13.8904 60.8132 2.84541 74.4389 2.84541C88.0638 2.84541 99.1087 13.8904 99.1087 27.5152C99.0935 41.1345 88.0574 52.1707 74.4381 52.1859Z" fill="#4DA8F9"/>
<path d="M83.9146 22.325V19.3645C83.9146 14.2213 79.7452 10.052 74.6021 10.052C69.459 10.052 65.2897 14.2213 65.2897 19.3645V22.325C62.8824 23.0029 61.2131 25.1903 61.1963 27.6919V39.5116C61.1963 42.5584 63.6203 45.0888 66.6672 45.0888H82.6346C85.7054 45.0648 88.1886 42.5816 88.2126 39.5108V27.6919C88.1878 25.1256 86.413 22.9094 83.9146 22.325ZM74.6021 12.8438C78.1806 12.871 81.0628 15.7867 81.0492 19.3645V22.1659H68.155V19.3645C68.1415 15.7867 71.0236 12.871 74.6021 12.8438ZM85.3473 39.5627C85.3473 41.0322 84.156 42.2234 82.6866 42.2234H66.7224C65.2529 42.2234 64.0617 41.0322 64.0617 39.5627V27.6919C64.0617 26.2225 65.2529 25.0312 66.7224 25.0312H82.6866C84.156 25.0312 85.3473 26.2225 85.3473 27.6919V39.5627Z" fill="#4DA8F9"/>
<path d="M74.6073 30.3831C73.0675 30.3823 71.7267 31.4344 71.3614 32.9302C70.996 34.4261 71.7003 35.9771 73.0667 36.687V38.5394C73.0667 39.3301 73.7079 39.9721 74.4994 39.9721C75.2908 39.9721 75.932 39.3301 75.932 38.5394V36.791C77.3871 36.1634 78.201 34.5996 77.8796 33.0478C77.559 31.4959 76.1919 30.3831 74.6073 30.3831ZM74.6073 33.2484C74.8096 33.2476 74.9902 33.3755 75.0574 33.5666C75.1238 33.7569 75.0622 33.9696 74.9031 34.0951C74.6968 34.0327 74.4794 34.0199 74.2675 34.0567C74.1332 33.92 74.094 33.7161 74.1684 33.5394C74.2427 33.3628 74.4154 33.2484 74.6073 33.2484Z" fill="#4DA8F9"/>
</svg>
